<svg xmlns="http://www.w3.org/2000/svg" version="1.1" xmlns:xlink="http://www.w3.org/1999/xlink" xmlns:svgjs="http://svgjs.dev/svgjs" width="1500" height="170" viewBox="0 0 1500 170"><g transform="matrix(1,0,0,1,-0.9090909090909918,-0.7835138057208297)"><svg viewBox="0 0 396 45" data-background-color="#755bb4" preserveAspectRatio="xMidYMid meet" height="170" width="1500" xmlns="http://www.w3.org/2000/svg" xmlns:xlink="http://www.w3.org/1999/xlink"><g id="tight-bounds" transform="matrix(1,0,0,1,0.2400000000000091,0.20740071327904275)"><svg viewBox="0 0 395.52 44.585198573441915" height="44.585198573441915" width="395.52"><g><svg viewBox="0 0 453.3954245706408 51.10923603552798" height="44.585198573441915" width="395.52"><g><rect width="4.586152885985574" height="51.10923603552798" x="41.28363585746789" y="0" fill="#ffffff" opacity="1" stroke-width="0" stroke="transparent" fill-opacity="1" class="rect-qz-0" data-fill-palette-color="primary" rx="1%" id="qz-0" data-palette-color="#ffffff"></rect></g><g transform="matrix(1,0,0,1,57.87542457064084,0.12713740307345134)"><svg viewBox="0 0 395.52 50.854961229381075" height="50.854961229381075" width="395.52"><g id="textblocktransform"><svg viewBox="0 0 395.52 50.854961229381075" height="50.854961229381075" width="395.52" id="textblock"><g><svg viewBox="0 0 395.52 50.854961229381075" height="50.854961229381075" width="395.52"><g transform="matrix(1,0,0,1,0,0)"><svg width="395.52" viewBox="4.48 -31.25 246.26000000000002 31.67" height="50.854961229381075" data-palette-color="#ffffff"><path d="M8.44 0L4.48 0 4.48-31.25 12.33-31.25Q15.28-31.25 17.4-30.07 19.51-28.89 20.68-26.96 21.84-25.03 21.84-22.74L21.84-22.74Q21.84-20.17 20.38-18.13 18.92-16.08 16.39-15.1L16.39-15.1 26.88 0 22.26 0 12.33-14.38 8.44-14.38 8.44 0ZM8.44-27.71L8.44-17.71 12.33-17.71Q14.34-17.71 15.61-18.45 16.88-19.2 17.48-20.36 18.09-21.53 18.09-22.74L18.09-22.74Q18.09-24.93 16.51-26.32 14.93-27.71 12.33-27.71L12.33-27.71 8.44-27.71ZM40.34 0.42L40.34 0.42Q37.08 0.42 34.49-1.04 31.91-2.5 30.43-5.02 28.96-7.53 28.96-10.63L28.96-10.63Q28.96-13.58 30.38-15.99 31.8-18.4 34.22-19.83 36.63-21.25 39.55-21.25L39.55-21.25Q42.43-21.25 44.82-19.88 47.22-18.51 48.64-16.18 50.07-13.85 50.07-10.9L50.07-10.9 50.07-9.38 36.46-9.38Q35.55-9.38 34.62-9.44 33.68-9.51 32.78-9.65L32.78-9.65Q33.16-6.88 35.29-5 37.43-3.13 40.38-3.13L40.38-3.13Q42.36-3.13 44.06-4.03 45.76-4.93 46.8-6.42L46.8-6.42 47.84-2.15Q46.35-0.94 44.42-0.26 42.5 0.42 40.34 0.42ZM32.67-12.19L32.67-12.19Q34.55-12.5 36.46-12.5L36.46-12.5 43.37-12.5Q44.13-12.5 44.88-12.45 45.62-12.4 46.39-12.33L46.39-12.33Q45.9-14.76 43.96-16.34 42.01-17.92 39.55-17.92L39.55-17.92Q37.01-17.92 35.1-16.23 33.19-14.55 32.67-12.19ZM60.45 0.42L60.45 0.42Q58.85 0.42 57.03-0.19 55.2-0.8 53.88-2.22L53.88-2.22 54.93-6.32Q55.9-4.69 57.43-3.73 58.95-2.78 60.69-2.78L60.69-2.78Q62.36-2.78 63.19-3.59 64.02-4.41 64.02-5.59L64.02-5.59Q64.02-6.94 63.14-7.57 62.25-8.19 61.56-8.44L61.56-8.44 58.75-9.51Q57.98-9.83 56.9-10.43 55.83-11.04 55.03-12.19 54.23-13.33 54.23-15.17L54.23-15.17Q54.23-16.84 55.03-18.23 55.83-19.62 57.29-20.43 58.75-21.25 60.72-21.25L60.72-21.25Q62.29-21.25 63.99-20.69 65.69-20.14 66.87-18.82L66.87-18.82 65.83-14.72Q65-16.25 63.57-17.15 62.15-18.06 60.62-18.06L60.62-18.06Q59.2-18.06 58.38-17.26 57.56-16.46 57.56-15.42L57.56-15.42Q57.56-14.58 58.12-13.92 58.68-13.26 59.79-12.85L59.79-12.85 62.6-11.77Q63.36-11.49 64.49-10.87 65.62-10.24 66.49-9.06 67.36-7.88 67.36-5.87L67.36-5.87Q67.36-3.06 65.39-1.32 63.43 0.42 60.45 0.42ZM78.95 0L75.2 0 75.2-17.71 70.48-17.71 70.48-20.83 75.31-20.83 75.31-27.78 78.85-27.78 78.85-20.83 84.02-20.83 84.02-17.71 78.95-17.71 78.95 0ZM97.32 0.28L97.32 0.28Q94.47 0.28 92.11-1.16 89.75-2.6 88.34-5.03 86.93-7.47 86.93-10.42L86.93-10.42Q86.93-13.37 88.34-15.8 89.75-18.23 92.11-19.67 94.47-21.11 97.32-21.11L97.32-21.11Q99.47-21.11 101.36-20.31 103.25-19.51 104.64-18.09L104.64-18.09 104.64-20.83 108.12-20.83 108.12 0 104.64 0 104.64-2.74Q103.25-1.35 101.36-0.54 99.47 0.28 97.32 0.28ZM97.8-3.13L97.8-3.13Q99.78-3.13 101.4-4.11 103.01-5.1 103.97-6.75 104.92-8.4 104.92-10.42L104.92-10.42Q104.92-12.43 103.97-14.08 103.01-15.73 101.4-16.72 99.78-17.71 97.8-17.71L97.8-17.71Q95.82-17.71 94.21-16.72 92.59-15.73 91.64-14.08 90.68-12.43 90.68-10.42L90.68-10.42Q90.68-8.4 91.64-6.75 92.59-5.1 94.21-4.11 95.82-3.13 97.8-3.13ZM122.73 0.42L122.73 0.42Q120.54 0.42 118.63-0.68 116.72-1.77 115.54-3.85 114.36-5.94 114.36-8.85L114.36-8.85 114.36-20.83 118.11-20.83 118.11-9.38Q118.11-6.91 119.59-5.02 121.06-3.13 123.74-3.13L123.74-3.13Q125.93-3.13 127.64-4.7 129.36-6.28 129.36-9.27L129.36-9.27 129.36-20.83 133.11-20.83 133.11 0 129.64 0 129.64-3.37Q128.49-1.53 126.67-0.56 124.85 0.42 122.73 0.42ZM144.78 0L140.82 0 140.82-31.25 148.56-31.25Q151.65-31.25 153.79-30.31 155.92-29.38 157.24-27.86 158.56-26.35 159.17-24.58 159.78-22.81 159.78-21.11L159.78-21.11Q159.78-19.44 159.19-17.67 158.6-15.9 157.28-14.38 155.96-12.85 153.8-11.91 151.65-10.97 148.56-10.97L148.56-10.97 144.78-10.97 144.78 0ZM144.78-27.71L144.78-14.51 148.35-14.51Q151.17-14.51 152.8-15.5 154.43-16.49 155.12-18 155.82-19.51 155.82-21.11L155.82-21.11Q155.82-22.64 155.14-24.17 154.46-25.69 152.85-26.7 151.24-27.71 148.35-27.71L148.35-27.71 144.78-27.71ZM174.29 0.42L174.29 0.42Q171.27 0.42 168.77-1.04 166.27-2.5 164.79-4.97 163.32-7.43 163.32-10.42L163.32-10.42Q163.32-13.44 164.79-15.89 166.27-18.33 168.77-19.79 171.27-21.25 174.29-21.25L174.29-21.25Q177.34-21.25 179.83-19.79 182.31-18.33 183.78-15.89 185.26-13.44 185.26-10.42L185.26-10.42Q185.26-7.43 183.78-4.97 182.31-2.5 179.83-1.04 177.34 0.42 174.29 0.42ZM174.29-3.13L174.29-3.13Q176.3-3.13 177.93-4.11 179.57-5.1 180.54-6.75 181.51-8.4 181.51-10.42L181.51-10.42Q181.51-12.43 180.54-14.08 179.57-15.73 177.93-16.72 176.3-17.71 174.29-17.71L174.29-17.71Q172.27-17.71 170.64-16.72 169.01-15.73 168.04-14.08 167.07-12.43 167.07-10.42L167.07-10.42Q167.07-8.4 168.04-6.75 169.01-5.1 170.64-4.11 172.27-3.13 174.29-3.13ZM194.22 0L190.47 0 190.47-20.83 193.94-20.83 193.94-17.47Q195.08-19.31 196.91-20.28 198.73-21.25 200.85-21.25L200.85-21.25Q203.07-21.25 204.96-20.16 206.86-19.06 208.04-17 209.22-14.93 209.22-11.98L209.22-11.98 209.22 0 205.47 0 205.47-11.46Q205.47-13.92 203.99-15.82 202.51-17.71 199.84-17.71L199.84-17.71Q197.65-17.71 195.93-16.13 194.22-14.55 194.22-11.56L194.22-11.56 194.22 0ZM221.64 0L217.89 0 217.89-17.71 213.17-17.71 213.17-20.83 218-20.83 218-27.78 221.54-27.78 221.54-20.83 226.71-20.83 226.71-17.71 221.64-17.71 221.64 0ZM241.02 0.42L241.02 0.42Q237.75 0.42 235.17-1.04 232.58-2.5 231.1-5.02 229.63-7.53 229.63-10.63L229.63-10.63Q229.63-13.58 231.05-15.99 232.48-18.4 234.89-19.83 237.3-21.25 240.22-21.25L240.22-21.25Q243.1-21.25 245.5-19.88 247.89-18.51 249.32-16.18 250.74-13.85 250.74-10.9L250.74-10.9 250.74-9.38 237.13-9.38Q236.23-9.38 235.29-9.44 234.35-9.51 233.45-9.65L233.45-9.65Q233.83-6.88 235.96-5 238.1-3.13 241.05-3.13L241.05-3.13Q243.03-3.13 244.73-4.03 246.43-4.93 247.48-6.42L247.48-6.42 248.52-2.15Q247.02-0.94 245.1-0.26 243.17 0.42 241.02 0.42ZM233.34-12.19L233.34-12.19Q235.22-12.5 237.13-12.5L237.13-12.5 244.04-12.5Q244.8-12.5 245.55-12.45 246.29-12.4 247.06-12.33L247.06-12.33Q246.57-14.76 244.63-16.34 242.68-17.92 240.22-17.92L240.22-17.92Q237.68-17.92 235.77-16.23 233.86-14.55 233.34-12.19Z" opacity="1" transform="matrix(1,0,0,1,0,0)" fill="#ffffff" class="wordmark-text-0" data-fill-palette-color="primary" id="text-0"></path></svg></g></svg></g></svg></g></svg></g><g transform="matrix(1,0,0,1,0,6.738282362892992)"><svg viewBox="0 0 29.278000030280527 37.632671309741994" height="37.632671309741994" width="29.278000030280527"><g><svg xmlns="http://www.w3.org/2000/svg" xmlns:xlink="http://www.w3.org/1999/xlink" version="1.1" x="0" y="0" viewBox="13.515999999999975 4.999995518767338 69.48400000000002 89.31171974116086" enable-background="new 0 0 100 100" xml:space="preserve" height="37.632671309741994" width="29.278000030280527" class="icon-icon-0" data-fill-palette-color="accent" id="icon-0"><g fill="#ffffff" data-fill-palette-color="accent"><g fill="#ffffff" data-fill-palette-color="accent"><path fill="#ffffff" d="M19.847 63.395c0.138 0.103 0.28 0.199 0.424 0.293 0.062 0.041 0.127 0.082 0.191 0.121 0.143 0.09 0.288 0.178 0.437 0.261 0.062 0.033 0.125 0.064 0.189 0.099 0.494 0.255 1.017 0.469 1.572 0.631 0.069 0.02 0.135 0.045 0.205 0.063 0.001-0.002 0.002-0.004 0.003-0.005 1.792 0.477 3.896 0.422 6.37-0.476 1.773-0.643 2.754-1.986 3.286-3.444 0.006-0.015 0.01-0.029 0.016-0.044 0.121-0.335 0.219-0.677 0.295-1.018 0.416 0.066 0.856 0.115 1.346 0.115 0.658 0 1.39-0.083 2.178-0.257 0.105 0.902 0.077 2.593 0.103 4.138 0.011 0.66 0.606 1.013 1.24 1.022 0.063 0.002 0.124-0.002 0.184-0.012 0.548-0.084 1.036-0.578 1.071-1.173 0.438-7.402-1.415-8.561-1.719-8.817-0.304-0.259-0.712-0.365-1.093-0.306-0.236 0.036-0.462 0.135-0.646 0.3-0.48 0.432-0.437 1.114-0.121 1.688 0.075 0.136 0.194 0.302 0.408 0.847-1.103 0.243-1.946 0.217-2.677 0.097 0.003-0.193 0.003-0.378 0-0.553 0-0.004 0-0.007 0-0.011-0.008-0.398-0.031-0.741-0.055-1.005-0.002-0.011-0.002-0.018-0.003-0.027-0.016-0.169-0.031-0.306-0.044-0.399-0.001-0.006-0.001-0.01-0.002-0.019-0.005-0.036-0.009-0.066-0.013-0.088-0.001-0.009-0.002-0.011-0.002-0.019-0.002-0.017-0.005-0.029-0.005-0.029s-0.002-0.014-0.003-0.031c-0.001-0.008-0.001-0.009-0.003-0.018-0.002-0.028-0.008-0.064-0.018-0.113-0.001-0.007-0.002-0.013-0.003-0.018-0.008-0.047-0.02-0.102-0.034-0.165-0.002-0.008-0.004-0.017-0.006-0.024-0.017-0.067-0.037-0.142-0.061-0.223-0.005-0.017-0.01-0.032-0.015-0.048-0.054-0.17-0.127-0.364-0.228-0.572-0.009-0.019-0.018-0.036-0.027-0.056-0.052-0.104-0.109-0.209-0.175-0.317-0.009-0.015-0.02-0.031-0.029-0.046-0.064-0.102-0.134-0.204-0.211-0.308-0.01-0.015-0.019-0.028-0.029-0.041-0.084-0.109-0.178-0.218-0.278-0.325-0.02-0.021-0.041-0.041-0.061-0.063-0.106-0.109-0.221-0.218-0.348-0.321-0.003-0.003-0.008-0.006-0.011-0.01-0.123-0.1-0.258-0.196-0.401-0.289-0.029-0.019-0.058-0.038-0.088-0.058-0.147-0.092-0.305-0.179-0.475-0.26-0.031-0.014-0.063-0.028-0.095-0.043-0.16-0.072-0.33-0.141-0.511-0.202-0.028-0.011-0.056-0.021-0.085-0.03-0.198-0.064-0.411-0.121-0.635-0.17-0.051-0.01-0.103-0.021-0.155-0.029-0.233-0.046-0.476-0.086-0.737-0.113-0.021-0.002-0.043-0.002-0.064-0.003-0.247-0.022-0.512-0.033-0.785-0.036-0.039-0.002-0.072-0.006-0.111-0.006-0.024 0-0.054 0.004-0.079 0.004-0.289 0.002-0.591 0.014-0.91 0.039-0.063 0.007-0.129 0.015-0.193 0.02-0.293 0.029-0.6 0.066-0.92 0.117-0.06 0.009-0.116 0.016-0.178 0.026-0.358 0.06-0.736 0.137-1.127 0.226-0.091 0.021-0.184 0.044-0.277 0.065-0.411 0.1-0.834 0.21-1.282 0.344-0.307 0.092-0.614 0.167-0.918 0.232-0.104 0.022-0.205 0.037-0.309 0.058-0.2 0.038-0.401 0.074-0.598 0.103-0.118 0.016-0.234 0.029-0.352 0.042-0.181 0.021-0.361 0.039-0.539 0.051-0.118 0.01-0.235 0.018-0.351 0.022-0.176 0.011-0.349 0.015-0.521 0.017-0.125 0.002-0.25 0.005-0.373 0.004-0.056-0.001-0.112-0.002-0.167-0.003-0.194-0.005-0.385-0.011-0.571-0.022-0.029-0.002-0.059-0.003-0.088-0.004-0.213-0.015-0.421-0.033-0.623-0.054-0.045-0.004-0.086-0.009-0.129-0.013-0.165-0.02-0.325-0.039-0.48-0.061-0.041-0.006-0.082-0.012-0.121-0.018-0.184-0.027-0.363-0.056-0.532-0.087-0.019-0.002-0.035-0.007-0.053-0.01-0.151-0.028-0.296-0.057-0.434-0.085-0.037-0.009-0.075-0.017-0.11-0.022-0.137-0.031-0.269-0.062-0.391-0.091-0.008-0.002-0.017-0.006-0.025-0.007-0.131-0.032-0.251-0.064-0.361-0.094-0.027-0.008-0.05-0.015-0.075-0.021-0.085-0.022-0.164-0.047-0.235-0.067-0.018-0.005-0.037-0.01-0.054-0.016-0.08-0.024-0.15-0.047-0.208-0.066-0.013-0.004-0.022-0.006-0.035-0.01-0.042-0.015-0.078-0.026-0.104-0.036-0.01-0.004-0.023-0.008-0.031-0.011-0.015-0.006-0.033-0.012-0.033-0.012s0.002 0.014 0.007 0.037c0.003 0.01 0.004 0.021 0.007 0.035 0.005 0.021 0.009 0.045 0.016 0.075 0.005 0.026 0.011 0.053 0.018 0.086 0.006 0.027 0.012 0.057 0.02 0.09 0.009 0.043 0.019 0.085 0.03 0.135 0.007 0.029 0.015 0.062 0.022 0.094 0.028 0.121 0.062 0.256 0.101 0.411 0.006 0.021 0.01 0.04 0.017 0.062 0.021 0.081 0.043 0.167 0.067 0.256 0.011 0.038 0.021 0.075 0.031 0.115 0.026 0.094 0.053 0.191 0.082 0.294 0.011 0.035 0.021 0.071 0.032 0.109 0.033 0.113 0.066 0.226 0.104 0.345 0.002 0.01 0.005 0.019 0.008 0.028 0.125 0.406 0.274 0.855 0.448 1.333 0.009 0.026 0.019 0.051 0.029 0.077 0.054 0.148 0.111 0.299 0.171 0.452 0.012 0.03 0.023 0.06 0.035 0.09 0.264 0.672 0.577 1.384 0.943 2.102 0.01 0.02 0.02 0.038 0.029 0.058 0.086 0.167 0.175 0.335 0.268 0.501 0.017 0.032 0.035 0.062 0.052 0.094 0.095 0.171 0.192 0.34 0.293 0.51 0.001 0.002 0.003 0.004 0.004 0.006 0.322 0.539 0.677 1.068 1.065 1.577 0.019 0.026 0.037 0.05 0.056 0.074 0.116 0.148 0.235 0.296 0.356 0.441 0.033 0.038 0.065 0.076 0.098 0.114 0.123 0.144 0.249 0.286 0.378 0.424 0.021 0.022 0.043 0.044 0.065 0.066 0.414 0.438 0.862 0.843 1.342 1.208C19.757 63.325 19.801 63.362 19.847 63.395z" data-fill-palette-color="accent"></path><path fill="#ffffff" d="M44.517 58.801c-1.184 0.039-2.608 1.454-2.432 2.961 0.218 1.879-0.135 3.254-0.709 3.841 1.476 0.14 2.29-1.334 2.298-1.346 0.372-0.77 1.142-1.258 1.852-0.771 0.472 0.322 1.608 1.158 0.375 2.616-0.189 0.225-2.681 3.171-7.739 2.843-4.222-0.275-4.426-2.037-4.78-2.487-0.783 0.899-1.802 1.273-3.121 1.751-1.667 0.604-3.445 0.661-4.987 0.661-1.247 0-3.464-0.571-4.411-1.307-4.492 5.143 0.263 15.409 2.125 18.589 4.623 7.889 10.197 9.011 13.23 7.403 1.749-0.926 2.354-0.217 3.694 0.092 12.241 2.814 17.499-12.395 18.147-20.596C58.369 69.088 56.775 57.188 44.517 58.801z" data-fill-palette-color="accent"></path></g><g fill="#ffffff" data-fill-palette-color="accent"><path fill="none" d="M72.604 15.464c0.016-0.595 0.031-1 0.053-1.588-1.078 0.129-2.861 0.302-3.572 0.302-0.582 0-1.896-0.119-2.945-0.231 0.17 4.755 0.197 7.595-0.061 12.365-0.021 0.385-0.041 1.396-0.062 1.789 2.6 0 4.162 0 6.764 0-0.125-1.865-0.182-4.36-0.211-6.222C72.521 19.117 72.537 18.224 72.604 15.464z"></path><path fill="#ffffff" d="M65.514 13.876c0.188 0.022 0.404 0.046 0.625 0.071-0.002-0.024-0.002-0.044-0.004-0.069L65.514 13.876z" data-fill-palette-color="accent"></path><g fill="#ffffff" data-fill-palette-color="accent"><path fill="none" d="M65.514 13.876c0.188 0.022 0.404 0.046 0.625 0.071-0.002-0.024-0.002-0.044-0.004-0.069L65.514 13.876z"></path><path fill="none" d="M62.062 72.267c-0.053 0.647-0.127 1.331-0.227 2.043h18.533V52.102H58.518c-0.189-0.251-0.059 5.094-0.096 7.74C61.732 63.824 62.279 69.507 62.062 72.267z"></path><path fill="none" d="M72.604 15.464c0.016-0.595 0.031-1 0.053-1.588-1.078 0.129-2.861 0.302-3.572 0.302-0.582 0-1.896-0.119-2.945-0.231 0.17 4.755 0.197 7.595-0.061 12.365-0.021 0.385-0.041 1.396-0.062 1.789 2.6 0 4.162 0 6.764 0-0.125-1.865-0.182-4.36-0.211-6.222C72.521 19.117 72.537 18.224 72.604 15.464z"></path><path fill="#ffffff" d="M76.426 35.443c-0.479-0.321-0.713-1.357-0.865-1.956-0.324-1.282-0.479-2.61-0.607-3.926-0.322-3.27-0.391-6.566-0.408-9.85-0.01-2.436 0.02-3.004 0.09-5.438 0.008-0.206 0.014-0.416 0.023-0.624h-0.002c0.014-0.042 0.041-0.116 0.092-0.22 0.184-0.371 0.365-0.751 0.506-1.145 0.355-0.99 1.076-1.912 0.734-2.922-0.143-0.422-1.143-3.048-1.662-3.445C73.998 5.666 70.828 4.998 69.1 5c-1.732-0.002-4.305 0.666-4.633 0.918-0.518 0.396-1.518 3.022-1.66 3.445-0.346 1.011 0.375 1.932 0.734 2.922 0.139 0.394 0.32 0.773 0.506 1.145 0.053 0.104 0.078 0.179 0.092 0.22 0.004 0.11 0.008 0.22 0.012 0.335 0.027 0.883 0.049 1.767 0.066 2.651 0.055 3.042 0.055 4.218-0.039 7.26-0.092 3.017-0.207 6.098-0.822 9.063-0.16 0.765-0.336 1.765-0.861 2.369-0.344 0.393-1.104 0.787-1.578 1.174-0.928 0.752-1.742 1.638-2.469 2.58-1.449 1.867-2.441 2.801-2.654 6.41v12.009c1.027 0.664 1.896 1.46 2.629 2.341 0.037-2.646-0.094-7.991 0.096-7.74h21.852V74.31H61.836c-0.639 4.578-2.295 10.295-5.174 14.934 0.02 0.06 0.041 0.12 0.068 0.179 0.32 0.718 0.908 1.991 1.471 2.546 0.594 0.578 1.256 0.787 2.02 1.052 1.729 0.6 3.488 0.956 5.311 1.119 4.312 0.383 9.344 0.192 13.445-1.259 0.732-0.256 1.188-0.486 1.752-1.045 0.598-0.585 1.16-1.386 1.48-2.145C82.748 88.394 83 87.145 83 87.002V44.891C82.521 39.786 79.641 37.487 76.426 35.443zM66.016 28.101c0.021-0.393 0.041-1.403 0.062-1.789 0.258-4.771 0.23-7.61 0.061-12.365-0.221-0.024-0.438-0.048-0.625-0.071l0.621 0.002c0.002 0.024 0.002 0.044 0.004 0.069 1.049 0.112 2.363 0.231 2.945 0.231 0.711 0 2.494-0.173 3.572-0.302-0.021 0.588-0.037 0.993-0.053 1.588-0.066 2.76-0.082 3.653-0.035 6.415 0.029 1.862 0.086 4.357 0.211 6.222C70.178 28.101 68.615 28.101 66.016 28.101z" data-fill-palette-color="accent"></path></g><polygon fill="#ffffff" points="72.656,13.876 72.656,13.876 72.656,13.876   " data-fill-palette-color="accent"></polygon></g></g></svg></g></svg></g></svg></g><defs></defs></svg><rect width="395.52" height="44.585198573441915" fill="none" stroke="none" visibility="hidden"></rect></g></svg></g></svg>